# Blender v3.0.0 OBJ File: 'box.blend'
# www.blender.org
mtllib box.mtl
o Cube.003_Cube.004
v 0.976131 -1.435326 -3.944184
v 0.976131 -1.073057 -3.944184
v 1.060806 -1.435326 -4.385103
v 1.060806 -1.073057 -4.385103
v 1.770522 -1.435326 -3.791628
v 1.770522 -1.073057 -3.791628
v 1.855197 -1.435326 -4.232547
v 1.855197 -1.073057 -4.232547
vt 1.125000 1.200000
vt 0.908333 1.200000
vt 0.908333 -0.533333
vt 1.125000 -0.533333
vt 0.258333 1.200000
vt 0.041667 1.200000
vt 0.041667 -0.533333
vt 0.258333 -0.533333
vt 0.475000 1.200000
vt 0.258333 1.200000
vt 0.258333 -0.533333
vt 0.475000 -0.533333
vt 0.691667 -0.533333
vt 0.691667 1.200000
vt 0.908334 -0.533333
vt 0.908334 1.200000
vt 0.691667 1.200000
vt 0.691667 -0.533333
vt 1.295000 0.030928
vt 1.295000 0.915739
vt -0.238333 0.915739
vt -0.238333 0.030928
vn -0.9821 0.0000 -0.1886
vn 0.9821 0.0000 0.1886
vn -0.1886 0.0000 0.9821
vn 0.0000 -1.0000 0.0000
vn 0.0000 1.0000 0.0000
vn 0.1886 0.0000 -0.9821
usemtl Material.001
s off
f 1/1/1 2/2/1 4/3/1 3/4/1
f 7/5/2 8/6/2 6/7/2 5/8/2
f 5/9/3 6/10/3 2/11/3 1/12/3
f 3/13/4 7/14/4 5/9/4 1/12/4
f 8/15/5 4/16/5 2/17/5 6/18/5
usemtl Material.002
f 3/19/6 4/20/6 8/21/6 7/22/6
