# Blender v2.76 (sub 0) OBJ File: 'lvl5room.blend'
# www.blender.org
mtllib lvl5room.mtl
o Plane
v -1.703522 0.000000 1.000000
v 1.723681 0.000000 1.000000
v -1.703522 0.000000 -1.000000
v 1.723681 0.000000 -1.000000
v -1.703522 0.000000 -1.000000
v -1.703522 0.000000 1.000000
v 1.723681 0.000000 1.000000
v 1.723681 0.000000 -1.000000
v -1.703522 0.000000 -1.000000
v -1.703522 0.000000 1.000000
v 1.723681 0.000000 1.000000
v 1.723681 0.000000 -1.000000
v -1.703522 0.000000 -1.000000
v -1.703522 0.000000 1.000000
v 1.723681 0.000000 1.000000
v 1.723681 0.000000 -1.000000
v -1.703522 0.000000 -1.000000
v -1.703522 0.000000 1.000000
v 1.723681 0.000000 1.000000
v 1.723681 0.000000 -1.000000
v -1.703522 0.000000 -1.000000
v -1.703522 0.000000 1.000000
v 1.723681 0.000000 1.000000
v 1.723681 0.000000 -1.000000
v -1.703522 2.000000 -1.000000
v -1.703522 2.000000 1.000000
v 1.723681 2.000000 1.000000
v 1.723681 2.000000 -1.000000
v -1.703522 2.000000 -1.000000
v 1.723681 2.000000 -1.000000
v -1.703522 2.000000 -1.000000
v 1.723681 2.000000 -1.000000
v -1.703522 2.000000 -1.000000
v 1.723681 2.000000 -1.000000
v -1.703522 2.000000 -1.000000
v 1.723681 2.000000 -1.000000
v -1.703522 2.000000 1.000000
v 1.723681 2.000000 1.000000
vt 0.441152 -0.001460
vt 0.440547 0.142771
vt 0.583936 0.151635
vt 0.584541 0.007403
vt 0.681206 0.657912
vt 0.675779 0.663094
vt 0.994134 0.681416
vt 0.988646 0.675695
vt 0.686807 0.651542
vt 0.981917 0.669785
vt 0.988764 0.366573
vt 0.983163 0.372943
vt 0.681324 0.348790
vt 0.688053 0.354700
vt 0.670141 0.668462
vt 0.999829 0.687368
vt 0.994191 0.361391
vt 0.675836 0.343069
vt 0.172029 -0.000195
vt 0.172029 0.153754
vt 0.325978 0.153754
vt 0.325978 -0.000195
vt 0.999829 0.356023
vt 0.670141 0.337117
vt 0.975083 0.336533
vt 0.975030 0.330866
vt 0.650287 0.331101
vt 0.650338 0.336774
vt 0.324834 0.336736
vt 0.324788 0.331079
vt 0.000215 0.330748
vt 0.000258 0.336381
vt 0.324742 0.325415
vt 0.000171 0.325099
vt 0.650236 0.325442
vt 0.974977 0.325230
vt 0.006149 0.001867
vt 0.006173 0.994270
vt 0.998491 0.994475
vt 0.998986 0.001217
vt 0.008556 0.000610
vt 0.006961 0.987948
vt 0.993851 0.988459
vt 0.994362 0.001570
vt 0.002878 0.004090
vt 0.002383 0.996890
vt 0.995956 0.997578
vt 0.997560 0.004175
vt 0.003484 -0.002926
vt 0.003484 1.003432
vt 1.009842 1.003432
vt 1.009842 -0.002926
vt 0.343526 0.337117
vt 0.337832 0.337117
vt 0.337832 0.663389
vt 0.343526 0.663389
vt 0.332138 0.337117
vt 0.332138 0.663389
vt 0.326444 0.337117
vt 0.326444 0.663389
vt 0.935860 0.175985
vt 0.128376 0.175985
vt 0.128376 0.983468
vt 0.935860 0.983468
vn 0.000000 1.000000 0.000000
vn 0.000000 0.000000 1.000000
vn 0.000000 -1.000000 0.000000
vn 1.000000 0.000000 0.000000
vn -1.000000 0.000000 0.000000
vn 0.000000 0.000000 -1.000000
usemtl Material.001
s off
f 1/1/1 2/2/1 4/3/1 3/4/1
f 7/5/2 11/6/2 12/7/2 8/8/2
f 2/9/2 7/5/2 8/8/2 4/10/2
f 4/10/2 8/8/2 5/11/2 3/12/2
f 3/12/2 5/11/2 6/13/2 1/14/2
f 1/14/2 6/13/2 7/5/2 2/9/2
f 11/6/2 15/15/2 16/16/2 12/7/2
f 8/8/2 12/7/2 9/17/2 5/11/2
f 5/11/2 9/17/2 10/18/2 6/13/2
f 6/13/2 10/18/2 11/6/2 7/5/2
f 14/19/3 13/20/3 16/21/3 15/22/3
f 12/7/2 16/16/2 13/23/2 9/17/2
f 9/17/2 13/23/2 14/24/2 10/18/2
f 10/18/2 14/24/2 15/15/2 11/6/2
f 13/25/2 17/26/2 18/27/2 14/28/2
f 15/29/2 19/30/2 20/31/2 16/32/2
f 14/28/2 18/27/2 19/30/2 15/29/2
f 19/30/2 23/33/2 24/34/2 20/31/2
f 18/27/2 22/35/2 23/33/2 19/30/2
f 17/26/2 21/36/2 22/35/2 18/27/2
f 21/37/4 25/38/4 26/39/4 22/40/4
f 23/41/5 27/42/5 28/43/5 24/44/5
f 22/45/6 26/46/6 27/47/6 23/48/6
f 16/49/2 30/50/2 29/51/2 13/52/2
f 30/53/2 32/54/2 31/55/2 29/56/2
f 32/54/2 34/57/2 33/58/2 31/55/2
f 34/57/2 36/59/2 35/60/2 33/58/2
f 36/61/3 38/62/3 37/63/3 35/64/3
