# Blender v2.79 (sub 0) OBJ File: 'boardwalk-collision.blend'
# www.blender.org
o Plane.001
v -3.684931 0.118742 3.926048
v -1.684931 0.118742 3.926048
v -3.684931 0.118742 3.526048
v -1.684931 0.118742 3.526048
v -0.368236 0.118742 4.207662
v -0.368236 0.118742 3.807662
v 2.531412 0.118742 3.438987
v 2.531412 0.118742 3.038987
v 5.041264 0.118742 2.204419
v 4.715713 0.118742 1.972005
v 6.610699 0.118742 -0.704295
v 6.219578 0.118742 -0.788105
v 6.611935 0.118742 -2.332760
v 6.218342 0.118742 -2.261451
v 5.278884 0.118742 -4.648836
v 4.977324 0.118742 -4.386039
v 1.929927 0.118742 -5.985180
v 1.746845 0.118742 -5.629539
v -1.951169 0.118742 -6.005753
v -2.001767 0.118742 -5.608966
v -5.488157 0.118742 -5.593069
v -5.538754 0.118742 -5.196282
v -3.684931 0.711473 3.926048
v -1.684931 0.711473 3.926048
v -3.684931 0.711473 3.526048
v -1.684931 0.711473 3.526048
v -0.368236 0.711473 4.207662
v -0.368236 0.711473 3.807662
v 2.531412 0.711473 3.438987
v 2.531412 0.711473 3.038987
v 5.041264 0.711473 2.204419
v 4.715713 0.711473 1.972005
v 6.610699 0.711473 -0.704295
v 6.219578 0.711473 -0.788105
v 6.611935 0.711473 -2.332760
v 6.218342 0.711473 -2.261451
v 5.278884 0.711473 -4.648836
v 4.977324 0.711473 -4.386039
v 1.929927 0.711473 -5.985180
v 1.746845 0.711473 -5.629539
v -1.951169 0.711473 -6.005753
v -2.001767 0.711473 -5.608966
v -5.488157 0.711473 -5.593069
v -5.538754 0.711473 -5.196282
vt 1.000000 0.969825
vt 0.827121 0.971415
vt 0.820094 0.932300
vt 0.992974 0.930710
vt 0.718253 1.000000
vt 0.711227 0.960885
vt 0.454106 0.927138
vt 0.447080 0.888023
vt 0.215469 0.808408
vt 0.239527 0.785422
vt 0.028713 0.525221
vt 0.061049 0.516714
vt 0.000000 0.365979
vt 0.035275 0.372639
vt 0.074544 0.138436
vt 0.105227 0.163895
vt 0.340552 0.005097
vt 0.362625 0.039728
vt 0.675671 0.000000
vt 0.687015 0.038760
vt 0.988656 0.037544
vt 1.000000 0.076304
vt 0.447080 0.888023
vt 0.711227 0.960885
vt 0.061049 0.516714
vt 0.239527 0.785422
vt 0.074544 0.138436
vt 0.340552 0.005097
vt 0.675671 0.000000
vt 0.988656 0.037544
vt 0.454106 0.927138
vt 0.215469 0.808408
vt 0.028713 0.525221
vt 0.000000 0.365979
vt 1.000000 0.969825
vt 0.827121 0.971415
vt 0.362625 0.039728
vt 0.105227 0.163895
vt 0.992974 0.930710
vt 1.000000 0.076304
vt 0.687015 0.038760
vt 0.718253 1.000000
vt 0.035275 0.372639
vt 0.820094 0.932300
vn 0.0000 1.0000 0.0000
vn 0.2562 0.0000 0.9666
vn 0.8781 0.0000 0.4784
vn -0.3706 0.0000 0.9288
vn 0.1159 0.0000 0.9933
vn -0.4414 0.0000 -0.8973
vn -1.0000 0.0000 -0.0008
vn 0.0000 0.0000 -1.0000
vn 0.3592 0.0000 -0.9332
vn 1.0000 0.0000 0.0000
vn -0.1159 0.0000 -0.9933
vn 0.2091 0.0000 -0.9779
vn 0.4389 0.0000 0.8985
vn 1.0000 0.0000 -0.0008
vn -0.2091 0.0000 0.9779
vn -0.0053 0.0000 1.0000
vn -0.8801 0.0000 -0.4749
vn -0.8667 0.0000 0.4988
vn 0.8635 0.0000 -0.5044
vn -0.0055 0.0000 -1.0000
vn 0.0000 0.0000 1.0000
vn -0.2562 0.0000 -0.9666
s off
f 1/1/1 2/2/1 4/3/1 3/4/1
f 4/3/1 2/2/1 5/5/1 6/6/1
f 6/6/1 5/5/1 7/7/1 8/8/1
f 8/8/1 7/7/1 9/9/1 10/10/1
f 10/10/1 9/9/1 11/11/1 12/12/1
f 12/12/1 11/11/1 13/13/1 14/14/1
f 14/14/1 13/13/1 15/15/1 16/16/1
f 16/16/1 15/15/1 17/17/1 18/18/1
f 18/18/1 17/17/1 19/19/1 20/20/1
f 20/20/1 19/19/1 21/21/1 22/22/1
f 6/6/2 8/8/2 30/23/2 28/24/2
f 10/10/3 12/12/3 34/25/3 32/26/3
f 17/17/4 15/15/4 37/27/4 39/28/4
f 21/21/5 19/19/5 41/29/5 43/30/5
f 9/9/6 7/7/6 29/31/6 31/32/6
f 13/13/7 11/11/7 33/33/7 35/34/7
f 2/2/8 1/1/8 23/35/8 24/36/8
f 16/16/9 18/18/9 40/37/9 38/38/9
f 1/1/10 3/4/10 25/39/10 23/35/10
f 20/20/11 22/22/11 44/40/11 42/41/11
f 5/5/12 2/2/12 24/36/12 27/42/12
f 8/8/13 10/10/13 32/26/13 30/23/13
f 12/12/14 14/14/14 36/43/14 34/25/14
f 4/3/15 6/6/15 28/24/15 26/44/15
f 19/19/16 17/17/16 39/28/16 41/29/16
f 11/11/17 9/9/17 31/32/17 33/33/17
f 15/15/18 13/13/18 35/34/18 37/27/18
f 14/14/19 16/16/19 38/38/19 36/43/19
f 18/18/20 20/20/20 42/41/20 40/37/20
f 3/4/21 4/3/21 26/44/21 25/39/21
f 7/7/22 5/5/22 27/42/22 29/31/22
