# Blender v2.93.1 OBJ File: 'ingul-windows.blend'
# www.blender.org
mtllib ingul-windows.mtl
o Plane
v 6.910520 0.029715 -5.917611
v 6.910520 3.970285 -5.917611
v 6.910520 0.029715 1.273063
v 6.910520 0.029715 3.058477
v 6.910520 3.970285 1.273063
v 6.910520 3.970285 3.058477
v 6.910520 0.029715 -2.304297
v 6.910520 0.029715 -0.887055
v 6.910520 3.970285 -2.304297
v 6.910520 3.970285 -0.887055
v 6.910520 0.029715 -4.473403
v 6.910520 3.970285 -4.473403
v 6.910520 0.029715 -5.513233
v 6.910520 3.970285 -5.513233
vt 0.359772 -3.851127
vt 0.359771 4.867408
vt 0.503160 4.867408
vt 0.503161 -3.851127
vt -0.487924 -2.943290
vt -0.487925 3.878166
vt 0.007414 3.878166
vt 0.007414 -2.943290
vt 0.507839 -3.740706
vt 0.507839 4.740705
vt 0.996714 4.740705
vt 0.996714 -3.740706
vt -0.008943 -3.851127
vt -0.008944 4.867408
vn -1.0000 0.0000 0.0000
usemtl Material.006
s off
f 13/1/1 14/2/1 2/3/1 1/4/1
f 4/5/1 6/6/1 5/7/1 3/8/1
f 8/9/1 10/10/1 9/11/1 7/12/1
f 11/13/1 12/14/1 14/2/1 13/1/1
