# Blender v3.0.0 OBJ File: 'laundry-window.blend'
# www.blender.org
o Plane_Plane.001
v 8.000000 1.320791 -15.000000
v 6.250000 1.320791 -15.000000
v 1.000000 1.829113 -15.000000
v 4.500000 1.829113 -15.000000
v 6.250000 1.829113 -15.000000
v 1.000000 6.619112 -15.000000
v 4.500000 6.619112 -15.000000
v 6.250000 6.619112 -15.000000
v 8.000000 6.610790 -15.000000
v 6.250000 6.610790 -15.000000
vt 0.732416 0.535168
vt 0.732416 0.802752
vt 0.000000 0.802752
vt 0.000000 0.535168
vt 0.732416 0.000000
vt 0.000000 0.000000
vt 0.732416 0.000000
vt 1.000000 0.000000
vt 1.000000 0.808868
vt 0.732416 0.808868
vn 0.0000 0.0000 1.0000
s off
f 4/1/1 5/2/1 8/3/1 7/4/1
f 3/5/1 4/1/1 7/4/1 6/6/1
f 2/7/1 1/8/1 9/9/1 10/10/1
