# Blender v3.0.0 OBJ File: 'laundry.blend'
# www.blender.org
o Plane_Plane.001
v -1.000000 1.320791 1.000000
v 1.000000 1.320791 1.000000
v -1.000000 1.320791 -15.000000
v 1.000000 1.320791 -15.000000
v -1.000000 1.320791 -15.010000
v 1.000000 1.320791 -15.010000
v -1.000000 4.320790 -15.010000
v 1.000000 4.320790 -15.010000
v -1.000000 4.320790 1.000000
v 1.000000 4.320790 1.000000
v -1.000000 4.320790 -15.000000
v 8.000000 1.320791 1.000000
v 8.000000 1.320791 -15.000000
v 8.000000 7.320790 1.000000
v 8.000000 7.320790 -15.000000
v 1.000000 4.320790 1.000000
v 1.000000 4.320790 -15.000000
v 1.000000 7.320790 1.000000
v 1.000000 7.320790 -15.000000
v 4.500000 1.320791 1.000000
v 6.250000 1.320791 1.000000
v 1.000000 1.320791 1.000000
v 8.000000 1.320791 1.000000
v 4.500000 1.320791 1.000000
v 6.250000 1.320791 1.000000
v 1.000000 1.320791 1.000000
v 8.000000 1.320791 1.000000
v 4.500000 1.320791 1.000000
v 6.250000 1.320791 1.000000
v 1.000000 7.320790 1.000000
v 8.000000 7.320790 1.000000
v 4.500000 7.320790 1.000000
v 6.250000 7.320790 1.000000
v 1.000000 1.320791 -15.000000
v 8.000000 1.320791 -15.000000
v 1.000000 1.320791 -15.000000
v 8.000000 1.320791 -15.000000
v 1.000000 1.320791 -30.000000
v 8.000000 1.320791 -30.000000
v 21.000000 1.320791 -15.000000
v 21.000000 1.320791 -30.000000
v -4.000000 1.320791 -15.000000
v -4.000000 1.320791 -30.000000
v 1.000000 5.320790 -30.000000
v 8.000000 5.320790 -30.000000
v 21.000000 5.320790 -30.000000
v -4.000000 5.320790 -15.000000
v -4.000000 5.320790 -30.000000
v 4.500000 1.320791 -15.000000
v 4.500000 1.320791 -15.000000
v 1.000000 1.320791 -15.000000
v 8.000000 1.320791 -15.000000
v 8.000000 1.320791 -15.000000
v 4.500000 1.320791 -15.000000
v 4.500000 1.320791 -15.000000
v 1.000000 1.320791 -15.000000
v 8.000000 1.320791 -15.000000
v 1.000000 1.320791 -15.000000
v 8.000000 1.320791 -15.000000
v 4.500000 1.320791 -15.000000
v 6.250000 1.320791 -15.000000
v 1.000000 1.829113 -15.000000
v 4.500000 1.829113 -15.000000
v 6.250000 1.829113 -15.000000
v 8.000000 7.320790 1.000000
v 8.000000 7.320790 -15.000000
v 1.000000 6.620790 -15.000000
v 8.000000 6.620790 -15.000000
v 4.500000 7.320790 1.000000
v 6.250000 7.320790 1.000000
v 4.500000 6.320790 1.000000
v 6.250000 6.320790 1.000000
v 21.000000 1.320791 -15.000000
v 21.000000 5.320790 -15.000000
v 4.500000 1.320791 2.000000
v 6.250000 1.320791 2.000000
v 4.500000 1.320791 2.000000
v 6.250000 1.320791 2.000000
v 4.500000 7.320790 2.000000
v 6.250000 7.320790 2.000000
v 4.500000 6.320790 2.000000
v 6.250000 6.320790 2.000000
v 4.500000 6.320790 2.000000
v 6.250000 6.320790 2.000000
vt 0.600000 0.400250
vt 0.550000 0.400250
vt 0.550000 0.000250
vt 0.600000 0.000250
vt 0.550000 0.000000
vt 0.600000 0.000000
vt 0.175000 0.625000
vt 0.225000 0.625000
vt 0.225000 0.700000
vt 0.175000 0.700000
vt 0.225000 0.625000
vt 0.275000 0.625000
vt 0.275000 0.700000
vt 0.225000 0.700000
vt 0.950000 0.000000
vt 0.950000 0.400000
vt 0.875000 0.400000
vt 0.875000 0.000000
vt 0.462500 0.400250
vt 0.418750 0.400250
vt 0.375000 0.400250
vt 0.375000 0.000250
vt 0.750000 0.400000
vt 0.750000 0.799999
vt 0.600000 0.799999
vt 0.600000 0.400000
vt 0.950000 0.400000
vt 0.950000 0.000000
vt 1.000000 0.000000
vt 1.000000 0.400000
vt 0.950000 0.400000
vt 0.950000 0.800000
vt 0.875000 0.800000
vt 0.875000 0.400000
vt 0.575000 0.425250
vt 0.575000 0.425250
vt 0.575000 0.425250
vt 0.575000 0.425250
vt 0.575000 0.425250
vt 0.575000 0.425250
vt 0.575000 0.425250
vt 0.575000 0.425250
vt 0.575000 0.425250
vt 0.575000 0.425250
vt 0.575000 0.425250
vt 0.575000 0.425250
vt 0.000000 0.625000
vt 0.087500 0.625000
vt 0.087500 0.775000
vt 0.000000 0.775000
vt 0.087500 0.625000
vt 0.131249 0.625000
vt 0.131249 0.775000
vt 0.087500 0.775000
vt 0.575000 0.425250
vt 0.575000 0.425250
vt 0.575000 0.425250
vt 0.575000 0.425250
vt 0.575000 0.425250
vt 0.575000 0.425250
vt 0.575000 0.425250
vt 0.575000 0.425250
vt 0.000000 0.500000
vt 0.000000 0.412500
vt 0.000000 0.325001
vt 0.375000 0.325001
vt 0.375000 0.500000
vt 0.000000 0.000000
vt 0.375000 0.000000
vt 0.375000 0.625000
vt 0.000000 0.625000
vt 0.875000 0.125000
vt 0.875000 0.300000
vt 0.775000 0.300000
vt 0.775000 0.125000
vt 0.875000 0.000000
vt 0.775000 0.000000
vt 0.475000 0.425250
vt 0.475000 0.800250
vt 0.375000 0.800250
vt 0.375000 0.425250
vt 0.875000 0.625000
vt 0.775000 0.625000
vt 0.575000 0.425250
vt 0.575000 0.425250
vt 0.575000 0.425250
vt 0.575000 0.425250
vt 0.575000 0.425250
vt 0.575000 0.425250
vt 0.575000 0.425250
vt 0.575000 0.425250
vt 0.575000 0.425250
vt 0.575000 0.425250
vt 0.575000 0.425250
vt 0.287708 0.712500
vt 0.287708 0.756250
vt 0.275000 0.756250
vt 0.275000 0.712500
vt 0.287708 0.625000
vt 0.275000 0.625000
vt 0.600000 0.400000
vt 0.600000 0.000000
vt 0.775000 0.000000
vt 0.775000 0.400000
vt 0.731250 0.400000
vt 0.687500 0.400000
vt 0.750000 0.575000
vt 0.750000 0.400000
vt 0.767500 0.400000
vt 0.767500 0.575000
vt 0.312708 0.668750
vt 0.312708 0.625000
vt 0.337708 0.625000
vt 0.337708 0.668750
vt 0.475000 0.425249
vt 0.575000 0.425249
vt 0.575000 0.800249
vt 0.475000 0.800249
vt 0.600000 0.575250
vt 0.600000 0.725250
vt 0.575000 0.725250
vt 0.575000 0.575250
vt 0.462500 0.425250
vt 0.418750 0.425250
vt 0.575000 0.575250
vt 0.600000 0.425250
vt 0.600000 0.575250
vt 0.312708 0.625000
vt 0.312708 0.668750
vt 0.287708 0.668750
vt 0.287708 0.625000
vt 0.131250 0.625000
vt 0.175000 0.625000
vt 0.175000 0.750000
vt 0.131250 0.750000
vn 0.0000 1.0000 0.0000
vn 0.0000 0.0000 1.0000
vn 0.0000 0.0000 -1.0000
vn 1.0000 0.0000 0.0000
vn -1.0000 0.0000 0.0000
vn 0.0000 -1.0000 0.0000
s off
f 1/1/1 2/2/1 4/3/1 3/4/1
f 3/4/1 4/3/1 6/5/1 5/6/1
f 5/7/2 6/8/2 8/9/2 7/10/2
f 2/11/3 1/12/3 9/13/3 10/14/3
f 1/15/4 3/16/4 11/17/4 9/18/4
f 4/3/1 2/2/1 20/19/1 21/20/1 12/21/1 13/22/1
f 13/23/5 12/24/5 14/25/5 15/26/5
f 9/27/6 11/28/6 17/29/6 16/30/6
f 16/31/4 17/32/4 19/33/4 18/34/4
f 20/35/2 2/36/2 22/37/2 24/38/2
f 12/39/2 21/40/2 25/41/2 23/42/2
f 24/38/2 22/37/2 26/43/2 28/44/2
f 23/42/2 25/41/2 29/45/2 27/46/2
f 28/47/3 26/48/3 30/49/3 32/50/3
f 27/51/3 29/52/3 33/53/3 31/54/3
f 4/55/2 13/56/2 35/57/2 50/58/2 34/59/2
f 34/59/2 50/58/2 35/57/2 37/60/2 49/61/2 36/62/2
f 36/63/1 49/64/1 37/65/1 39/66/1 38/67/1
f 39/66/1 37/65/1 40/68/1 41/69/1
f 36/63/1 38/67/1 43/70/1 42/71/1
f 38/72/2 39/73/2 45/74/2 44/75/2
f 43/76/2 38/72/2 44/75/2 48/77/2
f 42/78/4 43/79/4 48/80/4 47/81/4
f 39/73/2 41/82/2 46/83/2 45/74/2
f 50/58/2 35/57/2 53/84/2 54/85/2
f 13/56/2 4/55/2 51/86/2 55/87/2 52/88/2
f 4/55/2 13/56/2 57/89/2 56/90/2
f 56/90/3 57/89/3 59/91/3 61/92/3 60/93/3 58/94/3
f 60/95/2 61/96/2 64/97/2 63/98/2
f 58/99/2 60/95/2 63/98/2 62/100/2
f 18/101/6 19/102/6 66/103/6 65/104/6 70/105/6 69/106/6
f 66/107/2 19/108/2 67/109/2 68/110/2
f 69/111/3 70/112/3 72/113/3 71/114/3
f 46/115/5 41/116/5 73/117/5 74/118/5
f 28/119/4 32/120/4 79/121/4 77/122/4
f 21/20/1 20/19/1 75/123/1 76/124/1
f 33/125/5 29/45/5 78/126/5 80/127/5
f 71/128/6 72/129/6 82/130/6 81/131/6
f 76/132/3 75/133/3 83/134/3 84/135/3
